# xmcd CD database file
# Copyright (C) 1997 Ti Kan
#
# Track frame offsets:
#  150
#  18475
#  31065
#  45695
#  59900
#  76830
#  92630
#  107557
#  124982
#  139837
#  152587
#  170842
#  183350
#  198200
#  212175
#  229305
#  245047
#  260130
#  277975
#  292840
#
# Disc length: 4069 seconds
#
# Revision: 1
# Processed by: cddbd v1.4b41PL1 Copyright (c) Steve Scherf et al.
# Submitted via: CDWizzard Release:4.31
#
DISCID=250fe314
DTITLE=Multiple - Country Ladies Karaoke Style Vol. 2
DYEAR=1900
DGENRE=
TTITLE0=IS THERE LIFE OUT THERE
TTITLE1=WRONG SIDE OF MEMPHIS
TTITLE2=ONE TIME AROUND
TTITLE3=I WILL ALWAYS LOVE YOU
TTITLE4=SOME KIND OF TROUBLE
TTITLE5=CAN'T STOP MYSELF FROM LOVING YOU
TTITLE6=NOT TOO MUCH TO ASK
TTITLE7=LETTING GO
TTITLE8=WATCH ME
TTITLE9=LONESOME STANDARD TIME
TTITLE10=ISTHERE LIFE OUT THERE
TTITLE11=WRONG SIDE OF MEMPHIS
TTITLE12=ONE TIME AROUND
TTITLE13=I WILL ALWAYS LOVE YOU
TTITLE14=SOME KIND OF TROUBLE
TTITLE15=CAN'T STOP MYSELF FROM LOVING YOU
TTITLE16=NOT TOO MUCH TO ASK
TTITLE17=LETTING GO
TTITLE18=WATCH ME
TTITLE19=LONESOME STANDARD TIME
EXTD=
EXTT0=REBA MCENTIRE
EXTT1=TRISHA YEARWOOD
EXTT2=MICHELLE WRIGHT
EXTT3=DOLLY PARTON
EXTT4=TANYA TUCKER
EXTT5=PATTY LOVELESS
EXTT6=MARY CHAPIN CARPENTER
EXTT7=SUZY BOGGUSS
EXTT8=LORRIE MORGAN
EXTT9=KATHY MATTEA
EXTT10=REBA MCENTIRE
EXTT11=TRISHA YEARWOOD
EXTT12=MICHELLE WRIGHT
EXTT13=DOLLY PARTON
EXTT14=TANYA TUCKER
EXTT15=PATTY LOVELESS
EXTT16=MARY CHAPIN CARPENTER
EXTT17=SUZY BOGGUSS
EXTT18=LORRIE MORGAN
EXTT19=KATHY MATTEA
PLAYORDER=
